<?xml version="1.0" encoding="iso-8859-1"?>
<!-- Generator: Adobe Illustrator 18.1.1, SVG Export Plug-In . SVG Version: 6.00 Build 0)  -->
<svg version="1.1" id="Capa_1" xmlns="http://www.w3.org/2000/svg" xmlns:xlink="http://www.w3.org/1999/xlink" x="0px" y="0px"
	 viewBox="0 0 196.907 196.907" style="enable-background:new 0 0 196.907 196.907;" xml:space="preserve">
<g>
	<path style="fill:#010002;" d="M179.477,138.419c-6.223-2.303-12.328-4.958-18.384-7.709c-1.724-0.782-3.007-2.5-4.565-3.699
		c-0.686-0.525-1.528-1.014-2.351-1.146c-2.804-0.442-4.052-1.438-4.714-4.207c-0.871-3.634-1.498-7.268-0.74-11.045
		c0.346-1.653,0.931-2.709,2.548-3.335c3.335-1.307,6.593-2.745,9.893-4.135c2.452-1.038,2.613-1.903,1.712-4.457
		c-2.834-8.025-4.929-16.188-5.615-24.763c-0.424-5.418-0.292-10.955-1.611-16.284h-0.209c-0.107-0.495-0.173-0.991-0.292-1.474
		c-2.375-9.38-12.465-14.488-20.92-15.019c-0.072-0.006-0.125-0.018-0.203-0.024c-0.644-0.042-1.259,0.054-1.891,0.095
		c-3.574,0.489-6.492,2.745-9.857,3.735c-4.41,1.301-7.118,5.346-8.777,9.72c-2.339,6.2-1.903,12.811-2.417,19.249
		c-0.686,8.58-2.792,16.743-5.621,24.763c-0.883,2.548-0.74,3.413,1.724,4.457c3.3,1.39,6.564,2.846,9.887,4.135
		c1.617,0.621,2.214,1.677,2.542,3.335c0.758,3.777,0.131,7.405-0.74,11.045c-0.662,2.769-1.897,3.765-4.708,4.207
		c-0.829,0.131-1.653,0.621-2.345,1.146c-1.563,1.199-2.846,2.918-4.571,3.699c-1.223,0.561-7.512,3.234-11.922,5.108
		c-1.76-0.692-3.52-1.396-5.299-2.082c-0.847-0.322-1.85-0.955-2.184-1.707c-0.919-2.035-1.569-4.195-2.214-6.337
		c-0.412-1.366-0.782-2.643-2.285-3.306c-0.406-0.173-0.77-0.967-0.77-1.468c0.084-4.964-1.068-10.168,2.613-14.499
		c0.125-0.125,0.149-0.322,0.245-0.489c1.969-4.344,2.333-9.308,5.096-13.342c0.078-0.101,0.09-0.227,0.101-0.352
		c0.322-3.079,0.65-6.146,0.907-9.237c0.036-0.382-0.304-1.068-0.627-1.181c-1.528-0.543-1.438-1.766-1.432-2.995
		c0.006-6.021,0-12.047-0.006-18.062c-0.012-3.497-1.038-6.611-3.688-8.998c-3.007-2.709-6.104-5.334-9.189-7.948
		c-1.498-1.265-1.635-2.238-0.239-3.622c0.621-0.621,1.42-1.056,2.13-1.575c-0.155-0.233-0.316-0.471-0.465-0.698
		c-0.931,0-1.874-0.131-2.798,0.018c-3.419,0.555-6.856,1.032-10.221,1.826c-6.42,1.516-12.668,3.52-17.865,7.829
		c-3.568,2.936-6.414,6.355-6.772,11.206c-0.185,2.536-0.161,5.09-0.185,7.62c-0.024,4.135,0.042,8.276-0.048,12.411
		c-0.012,0.674-0.4,1.778-0.865,1.927c-1.677,0.543-1.718,1.617-1.492,3.007c0.149,0.955,0.03,1.963,0.239,2.894
		c0.579,2.59,1.193,5.173,1.933,7.721c0.561,1.891,1.635,3.688,1.939,5.609c0.603,3.855,2.017,7.208,4.612,10.108
		c0.43,0.483,0.752,1.295,0.704,1.921c-0.203,2.966-0.501,5.931-0.901,8.879c-0.078,0.573-0.686,1.426-1.175,1.533
		c-1.969,0.4-2.273,1.921-2.739,3.461c-0.621,2.023-1.283,4.046-2.082,6.009c-0.245,0.609-0.853,1.247-1.45,1.51
		c-3.509,1.528-7.071,2.93-10.597,4.415c-3.747,1.575-7.548,3.085-11.218,4.839c-3.777,1.802-7.435,3.849-11.134,5.824
		c-2.16,1.17-4.201,2.464-5.913,4.069v6.486c36.66,0,73.315,0,109.975,0c0.06,0,11.814,0,18.903,0c3.019,0,5.209,0,5.233,0
		c0.048,0,0.09,0,0.125,0c20.896,0,41.78,0,62.67,0C195.361,148.652,189.048,141.952,179.477,138.419z"/>
</g>
<g>
</g>
<g>
</g>
<g>
</g>
<g>
</g>
<g>
</g>
<g>
</g>
<g>
</g>
<g>
</g>
<g>
</g>
<g>
</g>
<g>
</g>
<g>
</g>
<g>
</g>
<g>
</g>
<g>
</g>
</svg>
