<?xml version="1.0" encoding="iso-8859-1"?>
<!-- Generator: Adobe Illustrator 16.0.0, SVG Export Plug-In . SVG Version: 6.00 Build 0)  -->
<!DOCTYPE svg PUBLIC "-//W3C//DTD SVG 1.1//EN" "http://www.w3.org/Graphics/SVG/1.1/DTD/svg11.dtd">
<svg xmlns="http://www.w3.org/2000/svg" xmlns:xlink="http://www.w3.org/1999/xlink" version="1.1" id="Capa_1" x="0px" y="0px" width="512px" height="512px" viewBox="0 0 58.473 58.473" style="enable-background:new 0 0 58.473 58.473;" xml:space="preserve">
<g>
	<path d="M7.501,41.344c-2.929-4.254-4.652-9.396-4.652-14.953C2.849,11.817,14.661,0,29.236,0   c14.576,0,26.388,11.817,26.388,26.391c0,5.554-1.725,10.699-4.653,14.953c1.8-3.412,2.824-7.294,2.824-11.422   c0-13.559-10.99-24.556-24.559-24.556c-13.569,0-24.559,10.997-24.559,24.556C4.677,34.05,5.708,37.932,7.501,41.344z    M43.657,27.142c0-7.958-6.455-14.421-14.421-14.421c-7.965,0-14.421,6.463-14.421,14.421c0,2.385,0.631,4.594,1.652,6.572   c-0.358-1.211-0.613-2.468-0.613-3.794c0-7.386,5.984-13.379,13.382-13.379s13.381,5.991,13.381,13.379   c0,1.327-0.246,2.583-0.611,3.794C43.028,31.731,43.657,29.525,43.657,27.142z M29.236,22.763c-2.418,0-4.375,1.959-4.375,4.375   c0,2.42,1.957,4.377,4.375,4.377s4.375-1.957,4.375-4.377C33.611,24.722,31.654,22.763,29.236,22.763z M19.029,58.473l5.195-24.8   H34.25l5.199,24.8h-2.845l-0.867-4.17H22.746l-0.871,4.17H19.029z M25.292,42.136h7.892l-1.19-5.688H26.48L25.292,42.136z    M23.325,51.521h11.824l-1.383-6.602h-9.062L23.325,51.521z" fill="#ffffff"/>
</g>
<g>
</g>
<g>
</g>
<g>
</g>
<g>
</g>
<g>
</g>
<g>
</g>
<g>
</g>
<g>
</g>
<g>
</g>
<g>
</g>
<g>
</g>
<g>
</g>
<g>
</g>
<g>
</g>
<g>
</g>
</svg>
