<?xml version="1.0" encoding="iso-8859-1"?>
<!-- Generator: Adobe Illustrator 16.0.0, SVG Export Plug-In . SVG Version: 6.00 Build 0)  -->
<!DOCTYPE svg PUBLIC "-//W3C//DTD SVG 1.1//EN" "http://www.w3.org/Graphics/SVG/1.1/DTD/svg11.dtd">
<svg version="1.1" id="Capa_1" xmlns="http://www.w3.org/2000/svg" xmlns:xlink="http://www.w3.org/1999/xlink" x="0px" y="0px"
	 width="187.383px" height="187.383px" viewBox="0 0 187.383 187.383" style="enable-background:new 0 0 187.383 187.383;"
	 xml:space="preserve">
<g>
	<path d="M185.439,57.992c-0.774-8.584,1.847-21.749-0.915-29.566c-0.238-0.673-0.819-1.223-1.514-1.316
		c-0.004-0.006-0.005-0.013-0.009-0.019c-4.027-5.607-15.182-3.842-20.966-3.96c-18.658-0.381-37.328-0.28-55.989-0.28
		c-33.891,0.002-68.694-1.656-102.487,1.42c-1.313,0.12-1.902,1.296-1.6,2.271c-0.946,0.565-1.572,1.644-1.233,3.143
		c4.997,22.128,5.212,45.077,4.736,67.658c-0.23,10.868-1.057,21.718-2.172,32.528c-0.885,8.579-4.695,18.537-2.739,27.061
		c0.464,2.023,3.465,3.104,4.998,1.57c12.18,8.393,38.403,5.012,51.832,5.479c16.529,0.575,32.902,1.101,49.439,0.979
		c17.874-0.133,35.762-0.398,53.613-1.353c5.741-0.307,19.281,0.98,22.239-5.886c0.514-1.189,0.283-2.519-0.359-3.503
		c1.52-4.409,0.918-9.561,0.849-14.196c-0.238-15.952,3.609-31.554,4.147-47.52C187.698,80.964,186.476,69.478,185.439,57.992z
		 M36.423,31.137c19.548,0.955,39.132,0.828,58.698,0.896c18.92,0.066,37.842,0.01,56.761,0.193
		c3.59,0.035,9.599-0.424,15.188-0.602c-7.161,6.984-13.86,17.846-17.642,22.165c-12.88,14.713-40.091,50.246-61.972,39.522
		C69.563,84.544,56.149,63.06,42.737,48.919c-5.342-5.632-13.147-14.26-21.671-18.277C26.326,30.906,31.589,30.9,36.423,31.137z
		 M22.178,40.666c8.307,6.547,15.188,15.044,22.118,22.965c7.578,8.664,15.782,19.925,25.355,28.519
		c-2.619,1.894-4.99,4.302-7.275,6.334c-8.156,7.258-15.834,15.076-23.644,22.699c-8.243,8.044-17.722,14.282-26.599,21.367
		c3.061-14.862,1.958-33.655,2.33-45.208C15.131,76.61,14.75,53.88,8.277,33.763C11.657,36.66,18.782,37.99,22.178,40.666z
		 M147.146,154.956c-15.618,0.577-31.256,0.72-46.884,0.818c-14.334,0.093-28.553-0.502-42.881-1.01
		c-10.314-0.365-20.628-0.685-30.94-1.108c-4.425-0.183-9.124-0.924-13.641-0.784c7.848-3.747,18.076-13.317,22.007-16.369
		c8.408-6.527,15.79-14.716,23.454-22.077c5.636-5.412,13.359-10.435,18.894-16.366c2.88,1.928,5.88,3.55,9.022,4.735
		c10.816,4.079,21.13,0.715,30.408-5.274c10.231,9.97,19.917,20.312,29.112,31.295c6.329,7.562,13.283,19.632,21.663,26.437
		C159.979,155.471,151.277,154.803,147.146,154.956z M174.915,123.819c-0.814,5.608-0.941,10.605-0.812,16.201
		c0.052,2.246,0.064,4.492,0.04,6.737c-0.002,0.803,0.002,1.43,0.011,1.982c-5.448-9.511-15.941-18.476-22.626-25.755
		c-9.396-10.232-19.456-20.033-30.425-28.611c6.467-4.884,12.34-10.739,17.396-15.77c7.745-7.705,15.206-15.668,22.341-23.938
		c3.392-3.931,10.645-15.718,15.921-20.449c-3.476,11.759,0.822,34.112,1.267,40.825C179.118,91.52,177.289,107.492,174.915,123.819
		z"  fill="#fff"/>
</g>
<g>
</g>
<g>
</g>
<g>
</g>
<g>
</g>
<g>
</g>
<g>
</g>
<g>
</g>
<g>
</g>
<g>
</g>
<g>
</g>
<g>
</g>
<g>
</g>
<g>
</g>
<g>
</g>
<g>
</g>
</svg>
