<?xml version="1.0" encoding="iso-8859-1"?>
<!-- Generator: Adobe Illustrator 19.1.0, SVG Export Plug-In . SVG Version: 6.00 Build 0)  -->
<svg version="1.1" id="Capa_1" xmlns="http://www.w3.org/2000/svg" xmlns:xlink="http://www.w3.org/1999/xlink" x="0px" y="0px"
	 viewBox="0 0 304.735 304.735" style="enable-background:new 0 0 304.735 304.735;" xml:space="preserve">
<g>
	<path d="M287.167,0v304.735h-0.006H133.456c-3.554,0-6.427-2.873-6.427-6.427s2.873-6.427,6.427-6.427h140.857V12.854h-141.39
		c-3.554,0-6.427-2.873-6.427-6.427S129.369,0,132.923,0H287.167z M102.511,158.801v48.188c0,2.873-0.668,5.321-1.992,7.282
		c-1.755,2.622-4.55,4.132-7.667,4.132c-1.851,0-4.711-0.553-7.886-3.201l-62.212-52.077c-3.297-2.764-5.186-6.684-5.186-10.771
		s1.889-8.014,5.186-10.771l62.212-52.051c3.156-2.648,6.028-3.207,7.886-3.207c4.653,0,9.66,3.573,9.66,11.388v48.227h108.864
		c3.56,0,6.427,2.873,6.427,6.427c0,3.554-2.866,6.427-6.427,6.427H102.511V158.801z M89.658,102.437l-58.645,49.011
		c-0.373,0.302-0.578,0.636-0.578,0.913c0,0.276,0.206,0.611,0.578,0.919l58.6,49.05L89.658,102.437z" fill="#5c0632"/>
</g>
<g>
</g>
<g>
</g>
<g>
</g>
<g>
</g>
<g>
</g>
<g>
</g>
<g>
</g>
<g>
</g>
<g>
</g>
<g>
</g>
<g>
</g>
<g>
</g>
<g>
</g>
<g>
</g>
<g>
</g>
</svg>
