<?xml version="1.0"?>
<svg xmlns="http://www.w3.org/2000/svg" xmlns:xlink="http://www.w3.org/1999/xlink" version="1.1" id="Capa_1" x="0px" y="0px" width="512px" height="512px" viewBox="0 0 192.951 192.95" style="enable-background:new 0 0 192.951 192.95;" xml:space="preserve" class=""><g><g>
	<path d="M164.883,141.81c-0.479-2.259-3.194-2.479-4.706-1.242c-1.012,0.826-1.846,1.778-2.554,2.812   c-0.757,0.255-1.404,0.853-1.676,1.888c-2.622,9.971-6.239,18.956-12.303,27.318c-1.524,2.103-4.657,6.138-8.104,8.996   c-6.027,2.375-11.758,1.25-11.453-9.093c0.266-9.011,6.298-22.75-2.286-29.687c-8.428-6.809-19.154,1.677-24.355,8.16   c-7.589,9.459-11.112,23.486-21.671,30.182c-9.825,6.23-8.693-7.749-6.943-13.506c1.432-4.71,4.451-10.905,3.088-15.971   c-2.676-9.944-13.51-5.475-19.103-1.136c-1.622,1.258-16.974,14.524-17.288,8.127c-0.205-4.186,3.463-8.777,6.441-12.734   c0.237,0.008,0.471-0.005,0.694-0.05c10.214-2.082,20.017-6.851,29.115-11.797c5.177-2.815,16.325-8.315,19.186-14.937   c1.246-1.374,1.69-3.091,2.624-4.936c1.854-3.664,4.419-7.031,6.864-10.31c5.34-7.158,11.127-13.886,16.218-21.234   c6.202-8.952,13.298-17.264,19.607-26.145c4.482-6.31,11.713-15.614,11.261-23.811c-0.045-0.817-0.479-1.432-1.058-1.782   c0.171-0.924-0.237-1.97-1.074-2.519c0.579,0.38-3.239-2.373-4.223-3.042c-3.842-2.616-7.553-5.43-11.33-8.137   c-9.027-6.468-19.31-10.459-29.22-15.323c-0.619-1.595-2.851-2.685-4.579-1.199c-6.229,5.358-9.536,13.593-13.323,20.687   c-5.635,10.556-12.227,20.466-18.517,30.634c-4.023,6.504-8.904,12.478-13.388,18.664c-3.425,4.724-8.327,10.424-8.806,16.478   c-0.029,0.36,0.03,0.67,0.131,0.949c-5.878,15.286-2.103,32.691-2.656,48.956c-8.525,4.614-17.149,24.628-7.99,31.523   c9.355,7.043,21.084-7.369,30.516-11.431c0.15,12.553-8.824,35.36,10.745,35.781c16.035,0.345,23.384-24.715,32.073-34.249   c1.734-1.902,3.563-3.678,5.617-5.239c5.841-4.443,7.471,4.441,7.214,8.483c-0.379,5.955-1.79,10.864-0.576,16.841   c1.241,6.107,5.621,13.302,12.849,11.922c0.88-0.168,1.735-0.406,2.58-0.68c0.609,0.746,1.542,1.166,2.592,0.744   c9.183-3.685,15.498-10.079,20.271-18.665c0.311-0.558,0.577-1.147,0.82-1.756C161.923,162.101,166.982,151.701,164.883,141.81z    M133.066,27.247c0.021-0.029,0.026-0.061,0.045-0.091c3.078,2.527,6.769,5.247,9.792,5.595c-1.838,3.326-2.945,7.067-4.75,10.449   c-2.36,4.422-5.29,8.55-8.194,12.625c-6.236,8.752-13.228,16.937-19.361,25.764c-5.098,7.337-10.95,14.102-16.21,21.324   c-1.885,2.588-5.92,7.656-6.843,12.043c-0.462,0.337-0.887,0.727-1.308,1.124c-2.119-2.081-6.322-2.679-9.715-2.697   c0.048-0.06,0.108-0.1,0.149-0.172c11.344-20.248,25.188-38.312,38.412-57.332C121.502,46.645,126.493,36.324,133.066,27.247z    M47.086,87.6c7.179-10.975,15.31-21.462,22.238-32.587c5.796-9.307,11.909-18.424,17.152-28.061   c3.744-6.884,6.689-15.329,12.208-21.098c5.634,4.098,11.931,7.199,18.115,10.499c-10.081,14.539-20.226,29.369-29.637,44.358   c-8.806,14.024-15.975,29.122-28.165,40.652c-0.524-6.86-4.482-12.273-11.937-13.383C47.072,87.852,47.095,87.722,47.086,87.6z    M46.396,91.497c6.488,2.245,9.103,7.345,7.679,14.584c-0.325,1.651,1.08,3.54,2.919,2.918c6.366-2.153,14.56-2.104,13.733,6.963   c-0.109,1.192,1.181,2.556,2.403,2.403c3.781-0.473,6.45,0.271,9.45,1.522c-0.323,0.325-0.642,0.657-0.986,0.954   c-3.815,3.288-8.326,5.849-12.691,8.317c-2.555,1.444-5.19,2.841-7.88,4.149c-1.534-3.763-5.356-6.764-8.694-8.674   c-1.854-1.061-4.05-2.01-6.229-1.805c-0.284,0.027-0.553,0.074-0.804,0.142C45.026,112.454,44.496,101.954,46.396,91.497z" data-original="#FAFAFA" class="active-path" data-old_color="#5c0632" fill="#5c0632"/>
</g></g> </svg>
